<svg width="512" height="512" viewBox="0 0 512 512" xmlns="http://www.w3.org/2000/svg">
  <rect width="512" height="512" rx="80" fill="#1D4ED8"/>
  <path d="M256 70 C206 70 166 110 166 160 C166 225 256 315 256 315 C256 315 346 225 346 160 C346 110 306 70 256 70Z" fill="white" opacity="0.15"/>
  <path d="M256 70 C206 70 166 110 166 160 C166 225 256 315 256 315 C256 315 346 225 346 160 C346 110 306 70 256 70Z" fill="none" stroke="white" stroke-width="5" opacity="0.5"/>
  <circle cx="256" cy="152" r="38" fill="white"/>
  <circle cx="256" cy="152" r="17" fill="#1D4ED8"/>
  <circle cx="175" cy="290" r="13" fill="white" opacity="0.9"/>
  <circle cx="218" cy="260" r="11" fill="white" opacity="0.8"/>
  <circle cx="296" cy="256" r="11" fill="white" opacity="0.8"/>
  <circle cx="338" cy="287" r="13" fill="white" opacity="0.9"/>
  <polyline points="175,290 218,260 296,256 338,287" fill="none" stroke="white" stroke-width="5" stroke-dasharray="8,6" opacity="0.8" stroke-linecap="round"/>
  <text x="256" y="390" font-family="system-ui,-apple-system,sans-serif" font-size="58" font-weight="700" fill="white" text-anchor="middle" letter-spacing="3">SRIDHI</text>
  <text x="256" y="440" font-family="system-ui,-apple-system,sans-serif" font-size="24" font-weight="400" fill="white" text-anchor="middle" letter-spacing="7" opacity="0.85">FIELD SALES</text>
</svg>
